<svg fill="none" height="32" viewBox="0 0 32 32" width="32" xmlns="http://www.w3.org/2000/svg"><path d="m16.0003 29.3307c7.3638 0 13.3334-5.9695 13.3334-13.3333s-5.9696-13.33334-13.3334-13.33334c-7.36377 0-13.33331 5.96954-13.33331 13.33334s5.96954 13.3333 13.33331 13.3333z" stroke="#c0f037" stroke-width="2.5"/><path d="m16.6314 9.15785c0-.63946-.5184-1.15785-1.1579-1.15785-.6394 0-1.1578.51839-1.1578 1.15785zm1.9765 9.21595c-.4522-.4521-1.1852-.4521-1.6373 0-.4522.4522-.4522 1.1852 0 1.6374zm.6783 3.9531c.4522.4522 1.1852.4522 1.6374 0s.4522-1.1852 0-1.6374zm-4.9705-13.16905v5.40325h2.3157v-5.40325zm2.6549 10.85335 2.3156 2.3157 1.6374-1.6374-2.3157-2.3157zm-.3392-3.1344c0 .6395-.5184 1.1579-1.1579 1.1579v2.3157c1.9184 0 3.4736-1.5553 3.4736-3.4736zm-1.1579 1.1579c-.6394 0-1.1578-.5184-1.1578-1.1579h-2.3157c0 1.9183 1.5552 3.4736 3.4735 3.4736zm-1.1578-1.1579c0-.6394.5184-1.1578 1.1578-1.1578v-2.3157c-1.9183 0-3.4735 1.5552-3.4735 3.4735zm1.1578-1.1578c.6395 0 1.1579.5184 1.1579 1.1578h2.3157c0-1.9183-1.5552-3.4735-3.4736-3.4735z" fill="#c0f037"/></svg>